<svg xmlns="http://www.w3.org/2000/svg" viewBox="0 0 60 60">
  <ellipse cx="35.204" cy="24.33" rx="1.087" ry="1.085"/>
  <ellipse cx="24.331" cy="24.33" rx="1.087" ry="1.085"/>
  <ellipse cx="24.331" cy="37.351" rx="1.087" ry="1.085"/>
  <ellipse cx="29.768" cy="39.522" rx="1.087" ry="1.085"/>
  <ellipse cx="21.069" cy="30.775" rx="1.087" ry="1.085"/>
  <ellipse cx="38.466" cy="30.775" rx="1.087" ry="1.085"/>
  <ellipse cx="35.204" cy="37.351" rx="1.087" ry="1.085"/>
  <path fill-rule="evenodd" d="M34.922 42.058a1.058 1.058 0 0 1 1.217.196l1.825 1.875a.682.682 0 0 0 .977-.951l-1.357-1.393c-.426-.438-.361-1.15.098-1.552C40.324 37.92 42 34.47 42 30.615 42 23.648 36.523 18 29.768 18c-6.756 0-12.232 5.648-12.232 12.614 0 3.815 1.641 7.234 4.236 9.547.452.403.513 1.11.09 1.544l-1.434 1.473a.682.682 0 0 0 .977.951l1.879-1.93a1.058 1.058 0 0 1 1.226-.191 11.878 11.878 0 0 0 5.258 1.221c1.841 0 3.587-.42 5.154-1.17Zm-5.154-.23c6.005 0 10.873-5.02 10.873-11.214 0-6.192-4.868-11.212-10.873-11.212-6.005 0-10.873 5.02-10.873 11.212 0 6.193 4.868 11.213 10.873 11.213Zm-.76-11.53V22.94a.781.781 0 0 1 1.563 0v8.183c0 .443-.36.803-.803.803a.76.76 0 0 1-.76-.76V30.298Z" clip-rule="evenodd"/>
  <path d="M29 19v-4h1.5v4z"/>
  <rect width="15.5" height="1.5" x="22" y="15" rx=".75"/>
</svg>
